# xmcd
#
# Track frame offsets:
#	150
#	17075
#	31242
#	44500
#	59197
#	71340
#	86590
#	101230
#	115427
#	127995
#	139915
#	150862
#	165220
#	182690
#	197720
#	212185
#	231227
#	250472
#
# Disc length: 3516 seconds
#
# Revision: 0
# Processed by: cddbd v1.4PL0 Copyright (c) Steve Scherf et al.
# Submitted via: audiograbber 1.80
#
DISCID=fe0dba12
DTITLE=Chris Isaak - Silvertone
DYEAR=1900
DGENRE=
TTITLE0=Dancin'
TTITLE1=Talk To Me
TTITLE2=Livin' For Your Lover
TTITLE3=Back On Your Side
TTITLE4=Voodoo
TTITLE5=Funeral In The Rain
TTITLE6=The Lonely Ones
TTITLE7=Unhappiness
TTITLE8=Tears
TTITLE9=Gone Ridin'
TTITLE10=Pretty Girls Don't Cry
TTITLE11=Western Stars
TTITLE12=You Owe Me Some Kind Of Love
TTITLE13=Heart Full Of Soul
TTITLE14=Blue Hotel
TTITLE15=Lie To Me
TTITLE16=Fade Away
TTITLE17=Wild Love
EXTD=
EXTT0=
EXTT1=
EXTT2=
EXTT3=
EXTT4=
EXTT5=
EXTT6=
EXTT7=
EXTT8=
EXTT9=
EXTT10=
EXTT11=
EXTT12=
EXTT13=
EXTT14=
EXTT15=
EXTT16=
EXTT17=
PLAYORDER=
